<?xml version="1.0" encoding="utf-8"?>
<!-- Generator: Adobe Illustrator 24.3.0, SVG Export Plug-In . SVG Version: 6.00 Build 0)  -->
<svg version="1.0" id="logo" xmlns="http://www.w3.org/2000/svg" xmlns:xlink="http://www.w3.org/1999/xlink" x="0px" y="0px"
	 viewBox="0 0 1000 1000" style="enable-background:new 0 0 1000 1000;" xml:space="preserve">
<g>
	<path d="M912.94,507.35c0,161.9-131.25,293.15-293.15,293.15c-88.76,0-168.3-39.45-222.05-101.76c30.09,9.07,62,13.94,95.05,13.94
		c181.79,0,329.16-147.38,329.16-329.17c0-35.96-5.77-70.57-16.42-102.96C871.1,334.3,912.94,415.94,912.94,507.35z"/>
	<path d="M509.04,87.49c161.9,0.67,292.6,132.46,291.94,294.36c-0.37,88.76-40.15,168.14-102.68,221.63
		c9.19-30.05,14.2-61.94,14.33-94.99c0.75-181.79-146.02-329.77-327.81-330.52c-35.96-0.15-70.59,5.48-103.03,15.99
		C335.82,128.61,417.63,87.11,509.04,87.49z"/>
	<path d="M87.1,498.86c-2.43-161.88,126.83-295.09,288.71-297.53c88.75-1.33,168.87,36.91,223.56,98.41
		c-30.22-8.62-62.2-13.01-95.25-12.51c-181.77,2.73-326.91,152.31-324.17,334.08c0.54,35.96,6.83,70.48,17.97,102.7
		C131.54,671.26,88.47,590.26,87.1,498.86z"/>
	<path d="M492.58,912.52c-161.9-0.09-293.08-131.41-292.99-293.31c0.05-88.76,39.54-168.28,101.88-222
		c-9.09,30.09-13.97,61.99-13.99,95.04c-0.1,181.79,147.2,329.24,328.99,329.34c35.96,0.02,70.57-5.73,102.97-16.36
		C665.66,870.77,583.99,912.56,492.58,912.52z"/>
	<path d="M500.19,316.97c-101.2,0-183.23,82.04-183.23,183.23s82.04,183.23,183.23,183.23S683.42,601.4,683.42,500.2
		S601.38,316.97,500.19,316.97z M555.04,500.2c-31.44,0-56.93-25.49-56.93-56.93s25.49-56.93,56.93-56.93s56.93,25.49,56.93,56.93
		S586.48,500.2,555.04,500.2z"/>
</g>
</svg>
