<?xml version="1.0" encoding="utf-8"?>
<!-- Generator: Adobe Illustrator 24.3.0, SVG Export Plug-In . SVG Version: 6.00 Build 0)  -->
<svg version="1.0" id="logo" xmlns="http://www.w3.org/2000/svg" xmlns:xlink="http://www.w3.org/1999/xlink" x="0px" y="0px"
	 viewBox="0 0 150 150" style="enable-background:new 0 0 150 150;" xml:space="preserve">
<style type="text/css">
	.st0{fill:#FFFFFF;}
</style>
<g>
	<path class="st0" d="M147.3,76.29c0,28.35-22.98,51.33-51.33,51.33c-15.54,0-29.47-6.91-38.88-17.82
		c5.27,1.59,10.86,2.44,16.64,2.44c31.83,0,57.64-25.81,57.64-57.64c0-6.3-1.01-12.36-2.88-18.03
		C139.98,45.99,147.3,60.28,147.3,76.29z"/>
	<path class="st0" d="M76.58,2.77c28.35,0.12,51.23,23.19,51.12,51.54c-0.06,15.54-7.03,29.44-17.98,38.81
		c1.61-5.26,2.49-10.85,2.51-16.63c0.13-31.83-25.57-57.74-57.4-57.87c-6.3-0.03-12.36,0.96-18.04,2.8
		C46.25,9.97,60.58,2.7,76.58,2.77z"/>
	<path class="st0" d="M2.7,74.8C2.28,46.46,24.91,23.13,53.25,22.7c15.54-0.23,29.57,6.46,39.14,17.23
		c-5.29-1.51-10.89-2.28-16.68-2.19c-31.83,0.48-57.24,26.67-56.76,58.5c0.09,6.3,1.2,12.34,3.15,17.98
		C10.48,104.99,2.94,90.8,2.7,74.8z"/>
	<path class="st0" d="M73.7,147.23c-28.35-0.02-51.32-23.01-51.3-51.36C22.41,80.33,29.32,66.41,40.24,57
		c-1.59,5.27-2.45,10.85-2.45,16.64c-0.02,31.83,25.78,57.65,57.61,57.67c6.3,0,12.36-1,18.03-2.87
		C104.01,139.92,89.71,147.24,73.7,147.23z"/>
	<path class="st0" d="M75.03,42.95c-17.72,0-32.08,14.36-32.08,32.08s14.36,32.08,32.08,32.08s32.08-14.36,32.08-32.08
		S92.75,42.95,75.03,42.95z M84.64,75.04c-5.51,0-9.97-4.46-9.97-9.97s4.46-9.97,9.97-9.97c5.51,0,9.97,4.46,9.97,9.97
		S90.14,75.04,84.64,75.04z"/>
</g>
</svg>
