<svg id="walk_svg__eds-icon--walk_svg" x="0" y="0" viewBox="0 0 24 24" xml:space="preserve"><path id="walk_svg__eds-icon--walk_base" fill-rule="evenodd" clip-rule="evenodd" fill="#231F20" d="M13.1 15.3L11 13.6V10c0-.6.5-1 1-1 .6 0 1 .5 1 1v5.3zm1-5.3c0-1.1-.9-2-2.1-2-.6 0-1.2.3-1.6.7L7 13.1l.8.6L9.9 11v3l5.2 4.3v3.4h1v-3.8L14 16.2V10z"></path><path id="walk_svg__eds-icon--walk_arm" fill-rule="evenodd" clip-rule="evenodd" fill="#231F20" d="M15.9 12.4l-.7.7 2 1.9.7-.7z"></path><path id="walk_svg__eds-icon--walk_leg" fill-rule="evenodd" clip-rule="evenodd" fill="#231F20" d="M7.2 21.5l.9.5 3.5-5.3-.9-.6z"></path><path id="walk_svg__eds-icon--walk_head" fill-rule="evenodd" clip-rule="evenodd" fill="#231F20" d="M11.9 2c-1.4 0-2.5 1.1-2.5 2.5S10.5 7 11.9 7s2.5-1.1 2.5-2.5S13.3 2 11.9 2zm0 4c-.8 0-1.5-.7-1.5-1.5S11.1 3 11.9 3s1.5.7 1.5 1.5S12.7 6 11.9 6z"></path></svg>